<?xml version="1.0" encoding="UTF-8"?>
<svg version="1.1" xmlns="http://www.w3.org/2000/svg" width="500" height="500">
<path d="M0 0 C165 0 330 0 500 0 C500 165 500 330 500 500 C335 500 170 500 0 500 C0 335 0 170 0 0 Z " fill="#EDEAE0" transform="translate(0,0)"/>
<path d="M0 0 C1.1446875 -0.00322266 2.289375 -0.00644531 3.46875 -0.00976562 C9.04841475 0.02591828 13.47476405 0.34432573 18.75 2.3125 C16.71668273 17.77516854 7.66174789 34.92263466 -4.234375 44.9921875 C-14.01769466 52.16900229 -24.37935611 53.44976309 -36.125 54.1875 C-58.82786264 55.71638282 -73.95355221 67.90354763 -91.40063477 81.33935547 C-99.15767693 87.29871598 -107.11410701 92.8863647 -115.25 98.3125 C-116.46751812 99.12880155 -117.68496736 99.94520584 -118.90234375 100.76171875 C-121.67921771 102.62059503 -124.4623064 104.46987677 -127.25 106.3125 C-123.57774539 104.32268803 -119.91289944 102.31946365 -116.25 100.3125 C-115.56421875 99.93738281 -114.8784375 99.56226563 -114.171875 99.17578125 C-102.94033958 93.02233365 -91.90164643 86.69967332 -81.19921875 79.65234375 C-61.47121883 66.67262766 -43.6180041 56.47628296 -19.21875 59.71484375 C-7.68771536 62.3718442 4.57171315 68.735614 12.6875 77.375 C13.75 79.3125 13.75 79.3125 13.4609375 81.23046875 C10.42085375 90.13357116 0.05443648 95.41684144 -7.67578125 99.63671875 C-19.25952716 105.17140374 -31.98390528 105.82212301 -44.25 102.3125 C-47.36044893 101.13975658 -50.36443443 99.7821683 -53.375 98.375 C-55.63578876 97.3405644 -57.89704824 96.30717778 -60.15893555 95.27514648 C-62.06002244 94.39995844 -63.95058234 93.50199395 -65.83984375 92.6015625 C-69.58194314 91.18702321 -72.70170545 90.81479974 -76.6875 90.625 C-77.92371094 90.55925781 -79.15992188 90.49351562 -80.43359375 90.42578125 C-81.36300781 90.38839844 -82.29242188 90.35101563 -83.25 90.3125 C-77.49821862 84.45354257 -77.49821862 84.45354257 -72.13671875 84.1171875 C-67.71319665 84.33947504 -64.06361393 85.3422689 -59.875 86.6875 C-58.35985311 87.14870903 -56.84423233 87.60836432 -55.328125 88.06640625 C-53.96875 88.48177083 -52.609375 88.89713542 -51.25 89.3125 C-37.58616136 93.43235438 -23.90997048 91.12140458 -10.25 88.3125 C-12.27646994 88.23384258 -12.27646994 88.23384258 -14.29296875 88.80859375 C-18.39477629 89.50758077 -22.41056287 89.41760078 -26.5625 89.375 C-27.39845703 89.37048828 -28.23441406 89.36597656 -29.09570312 89.36132812 C-31.14716649 89.34960548 -33.19859273 89.33167203 -35.25 89.3125 C-35.25 88.6525 -35.25 87.9925 -35.25 87.3125 C-33.6158023 85.97381726 -31.9149573 84.71596254 -30.1875 83.5 C-29.18976563 82.79230469 -28.19203125 82.08460938 -27.1640625 81.35546875 C-26.20242188 80.68128906 -25.24078125 80.00710938 -24.25 79.3125 C-22.85324093 78.31379343 -21.45721716 77.31405615 -20.0625 76.3125 C-19.134375 75.6525 -18.20625 74.9925 -17.25 74.3125 C-22.41301439 75.92848285 -26.27202681 79.12417529 -30.5 82.375 C-31.2321875 82.92994141 -31.964375 83.48488281 -32.71875 84.05664062 C-36.10692736 86.54085382 -36.10692736 86.54085382 -39.25 89.3125 C-45.9957551 89.9861399 -51.81827628 87.86045648 -58.1875 85.8125 C-59.25291016 85.47863281 -60.31832031 85.14476562 -61.41601562 84.80078125 C-64.03026826 83.98016383 -66.64129309 83.1505467 -69.25 82.3125 C-67.76127139 79.1297009 -66.56795304 77.5244687 -63.625 75.5625 C-62.99335938 75.13453125 -62.36171875 74.7065625 -61.7109375 74.265625 C-61.22882813 73.95109375 -60.74671875 73.6365625 -60.25 73.3125 C-63.80737844 74.60666052 -66.63920457 76.14028775 -69.6875 78.375 C-137.2267561 126.57482153 -137.2267561 126.57482153 -163.25 125.3125 C-162.08429559 121.81538677 -161.4198588 121.5050849 -158.3828125 119.640625 C-157.18652222 118.89703735 -157.18652222 118.89703735 -155.96606445 118.13842773 C-155.11101318 117.61837158 -154.25596191 117.09831543 -153.375 116.5625 C-152.06825317 115.75244507 -152.06825317 115.75244507 -150.73510742 114.92602539 C-148.2439547 113.38178443 -145.74731819 111.84674114 -143.25 110.3125 C-128.59730664 101.19324612 -114.55623673 91.20378326 -100.61914062 81.03466797 C-98.15453863 79.24310753 -95.67935066 77.46685815 -93.203125 75.69140625 C-76.9861168 64.00656648 -66.33847317 52.2828262 -57.1875 34.5625 C-48.67271513 18.19242305 -36.18475024 7.6523511 -18.703125 1.6640625 C-12.4878024 -0.13826466 -6.4279573 -0.09172314 0 0 Z " fill="#38753B" transform="translate(388.25,277.6875)"/>
<path d="M0 0 C10.11596259 7.41837256 14.57575951 16.53279633 16.89453125 28.79296875 C19.22960836 45.03124349 17.90466346 61.65224623 8.328125 75.453125 C5.41922688 78.9402625 2.26157474 81.40774798 -1.59765625 83.76171875 C-2.48453125 84.38046875 -3.37140625 84.99921875 -4.28515625 85.63671875 C-12.00812173 88.25961269 -20.97406798 87.436662 -28.59765625 84.76171875 C-38.06835158 79.54317234 -43.82351065 71.79884282 -47.59765625 61.76171875 C-49.39773809 55.00316973 -49.9548929 48.42294877 -49.91015625 41.44921875 C-49.9052417 40.53495117 -49.90032715 39.62068359 -49.89526367 38.67871094 C-49.65974806 25.00189638 -46.5049557 12.6690182 -36.59765625 2.76171875 C-25.14590852 -5.18363065 -12.4682159 -7.85442676 0 0 Z " fill="#37743A" transform="translate(153.59765625,146.23828125)"/>
<path d="M0 0 C1.36125 0.86625 1.36125 0.86625 2.75 1.75 C12.18843287 11.18843287 16.18343409 23.49614845 16.32958984 36.59814453 C16.3239502 37.47325684 16.31831055 38.34836914 16.3125 39.25 C16.30686035 40.17022949 16.3012207 41.09045898 16.29541016 42.03857422 C16.05723906 55.47283901 13.0296988 67.71985792 3.75 77.875 C-3.70030667 84.61111605 -10.72200994 86.78350172 -20.7421875 86.33984375 C-30.09345555 85.36435176 -35.64344438 80.86069623 -42 74 C-51.81023908 61.24668919 -51.1640717 43.24853276 -50 28 C-48.44029628 16.35026985 -43.15423225 6.81973515 -34.046875 -0.55859375 C-23.64307864 -7.88493126 -10.3598016 -6.81409513 0 0 Z " fill="#37743A" transform="translate(223,147)"/>
<path d="M0 0 C17.34106385 0 29.56983145 0.14276507 42 12 C42.61230469 12.57234375 43.22460938 13.1446875 43.85546875 13.734375 C55.7302863 26.00239843 58.46858401 41.18778914 58.42944336 57.55688477 C58.19726943 69.9895711 55.35096828 78.78688149 46.47265625 87.90234375 C32.83194951 99.47431771 18.04372173 96 0 96 C0 64.32 0 32.64 0 0 Z " fill="#39763C" transform="translate(58,246)"/>
<path d="M0 0 C15.86550373 0 29.49161489 0.60089359 41.375 11.6875 C51.9764831 23.30284635 54.84593543 37.38884396 54.34375 52.65625 C53.65491564 63.97281455 48.50730127 74.214508 40.125 81.875 C26.97198613 90.81904943 17.22077731 89 0 89 C0 59.63 0 30.26 0 0 Z " fill="#367439" transform="translate(289,143)"/>
<path d="M0 0 C3 1 3 1 4.31640625 2.96875 C9.0622032 12.60911497 10.31379863 21.32776283 11 32 C11.10957031 31.29875 11.21914063 30.5975 11.33203125 29.875 C13.10662983 19.25626379 15.14112441 11.36543672 24.1875 4.625 C27 3 27 3 29 3 C26.90590712 12.3315718 23.57797783 20.95990156 18.01171875 28.80078125 C15.57521716 32.67552844 14.18632356 36.55137295 12.75 40.875 C12.481875 41.65875 12.21375 42.4425 11.9375 43.25 C11.28392514 45.16404067 10.64086832 47.08166749 10 49 C10.495 49.495 10.495 49.495 11 50 C11.763125 49.05125 12.52625 48.1025 13.3125 47.125 C15.88673147 43.92460412 17.92746464 42.17160566 22.125 41.5 C28.20502078 42.28451881 32.90328999 45.3955665 36.7421875 50.1640625 C38.47241347 54.06513099 38.45283897 57.46539164 38.375 61.6875 C38.36194824 62.49695068 38.34889648 63.30640137 38.33544922 64.14038086 C37.81111228 82.38767284 26.22767721 97.31921684 15 111 C14.35732178 111.8036499 14.35732178 111.8036499 13.70166016 112.62353516 C10.84779097 116.1490284 8.77828796 118.64434241 4.1875 119.5625 C0.1300235 118.84647474 -0.95287659 117.5245258 -3.41015625 114.34375 C-12 101.68058968 -12 101.68058968 -12 97 C-8.535 96.505 -8.535 96.505 -5 96 C-5.92232422 95.87044922 -5.92232422 95.87044922 -6.86328125 95.73828125 C-13.52073733 94.58092445 -13.52073733 94.58092445 -16.0625 91.5 C-17 89 -17 89 -17 87 C-7.1 86.505 -7.1 86.505 3 86 C-1.99492756 85.75163074 -1.99492756 85.75163074 -6.99072266 85.52197266 C-11.29863177 85.28027479 -14.93511706 84.57722587 -19 83 C-19 81.35 -19 79.7 -19 78 C-15.535 77.505 -15.535 77.505 -12 77 C-15.96 76.505 -15.96 76.505 -20 76 C-21.78344321 66.32880794 -22.66215521 56.51092705 -17 48 C-14.73353074 44.98984552 -12.41463616 43.30397141 -8.63671875 42.4921875 C-3.67088976 42.14555907 -0.70032412 42.73334391 3.125 46 C4.10664752 46.9771238 5.07411865 47.96988035 6 49 C5.18670446 42.08698788 1.36981677 38.29943409 -3.5 33.75 C-7.9780336 29.39000353 -10.49962591 25.07494126 -12 19 C-12 17.68 -12 16.36 -12 15 C-3.65087003 18.71072443 0.52018024 25.24459742 4.046875 33.4296875 C4.74133434 35.27065991 5.37778997 37.13336992 6 39 C5.16605052 33.84268087 4.21015028 29.25764258 1.875 24.5625 C-1.4379179 16.94278882 -0.30038203 8.12700275 0 0 Z " fill="#EF6A06" transform="translate(281,232)"/>
<path d="M0 0 C6.52195465 2.13312051 11.70295501 7.42895381 15.01953125 13.3046875 C22.78896314 30.73573764 23.71090219 51.73637482 16.94140625 69.6953125 C13.28219599 77.40620351 8.99400298 83.13119047 1.078125 86.6796875 C-3.20856283 87.2813279 -5.22994445 87.05332999 -9.046875 84.9921875 C-14.75272697 80.40269787 -18.03893602 76.31486241 -20.921875 69.6796875 C-21.19378662 69.07648682 -21.46569824 68.47328613 -21.74584961 67.85180664 C-24.41740559 61.05155974 -24.41209189 54.19640146 -24.36791992 46.98803711 C-24.35943064 44.88099618 -24.38821335 42.7766951 -24.41992188 40.66992188 C-24.49084181 27.06757887 -21.19843099 15.83184567 -12.0390625 5.5703125 C-8.39343287 1.99616581 -5.28062537 -0.51974659 0 0 Z " fill="#3E7940" transform="translate(265.921875,144.3203125)"/>
<path d="M0 0 C7.734375 -0.020625 15.46875 -0.04125 23.4375 -0.0625 C25.88212646 -0.071604 28.32675293 -0.08070801 30.84545898 -0.09008789 C32.77067001 -0.09300691 34.69588165 -0.0955555 36.62109375 -0.09765625 C38.13564148 -0.1053302 38.13564148 -0.1053302 39.68078613 -0.11315918 C40.6348938 -0.11328003 41.58900146 -0.11340088 42.57202148 -0.11352539 C43.40475082 -0.115746 44.23748016 -0.11796661 45.09544373 -0.12025452 C47 0 47 0 48 1 C48 5.29 48 9.58 48 14 C37.44 14 26.88 14 16 14 C16 21.92 16 29.84 16 38 C25.24 38 34.48 38 44 38 C44 42.29 44 46.58 44 51 C43 52 43 52 40.40795898 52.11352539 C39.28204346 52.10828857 38.15612793 52.10305176 36.99609375 52.09765625 C35.78115234 52.09443359 34.56621094 52.09121094 33.31445312 52.08789062 C32.03505859 52.07951172 30.75566406 52.07113281 29.4375 52.0625 C28.15423828 52.05798828 26.87097656 52.05347656 25.54882812 52.04882812 C22.3658658 52.03699555 19.18292726 52.01905944 16 52 C16.33 59.92 16.66 67.84 17 76 C27.23 76.33 37.46 76.66 48 77 C48 81.62 48 86.24 48 91 C32.16 91 16.32 91 0 91 C0 60.97 0 30.94 0 0 Z " fill="#37743A" transform="translate(397,142)"/>
<path d="M0 0 C1.1446875 -0.00322266 2.289375 -0.00644531 3.46875 -0.00976562 C9.04841475 0.02591828 13.47476405 0.34432573 18.75 2.3125 C16.71668273 17.77516854 7.66174789 34.92263466 -4.234375 44.9921875 C-18.13291715 55.18783338 -37.605241 55.65510224 -54.25 55.3125 C-53.82952745 50.40698693 -51.79961265 48.57257002 -48.25 45.3125 C-46.45471548 43.98078583 -44.62180137 42.69855953 -42.7578125 41.46484375 C-41.72269531 40.77712891 -40.68757813 40.08941406 -39.62109375 39.38085938 C-38.54988281 38.67767578 -37.47867187 37.97449219 -36.375 37.25 C-35.31152344 36.54294922 -34.24804688 35.83589844 -33.15234375 35.10742188 C-18.74743856 25.5787113 -18.74743856 25.5787113 -14.4375 24.8125 C-13.715625 24.6475 -12.99375 24.4825 -12.25 24.3125 C-11.95996094 23.70921875 -11.66992188 23.1059375 -11.37109375 22.484375 C-10.01519864 19.8576235 -8.52172426 18.76340109 -6.125 17.0625 C-5.40054688 16.54171875 -4.67609375 16.0209375 -3.9296875 15.484375 C-3.37539063 15.09765625 -2.82109375 14.7109375 -2.25 14.3125 C-3.8709213 15.48482685 -5.49686833 16.6502077 -7.125 17.8125 C-8.02992188 18.4621875 -8.93484375 19.111875 -9.8671875 19.78125 C-12.25 21.3125 -12.25 21.3125 -14.25 21.3125 C-14.745 17.8475 -14.745 17.8475 -15.25 14.3125 C-14.57073304 18.07934404 -14.6394228 20.80712609 -16.25 24.3125 C-20.36638732 27.58843071 -25.44922046 29.49048868 -30.27880859 31.47607422 C-32.10295951 32.25010705 -33.87747204 33.13840928 -35.64453125 34.03515625 C-38.25 35.3125 -38.25 35.3125 -40.25 35.3125 C-40.58 34.3225 -40.91 33.3325 -41.25 32.3125 C-41.47816406 33.21613281 -41.70632813 34.11976563 -41.94140625 35.05078125 C-43.45840977 38.83196913 -44.93936987 40.11040647 -48.1875 42.5 C-51.69032471 45.06907591 -51.69032471 45.06907591 -54.8671875 48.0078125 C-57.01787578 50.03699296 -59.39600435 49.99538937 -62.25 50.3125 C-60.6225987 35.59946374 -51.62250896 22.47659159 -40.5 13.0625 C-28.0714071 3.62668177 -15.4278324 -0.22014601 0 0 Z " fill="#37753A" transform="translate(388.25,277.6875)"/>
<path d="M0 0 C15.84 0 31.68 0 48 0 C49 1 49 1 49.1328125 3.25 C49.13023437 4.1575 49.12765625 5.065 49.125 6 C49.12886719 7.36125 49.12886719 7.36125 49.1328125 8.75 C49 11 49 11 48 12 C45.47905924 12.08847743 42.98569107 12.11527301 40.46484375 12.09765625 C39.33496788 12.09553383 39.33496788 12.09553383 38.18226624 12.09336853 C35.7673044 12.08775376 33.35243399 12.07519883 30.9375 12.0625 C29.30403779 12.0574869 27.67057414 12.05292366 26.03710938 12.04882812 C22.0246757 12.03862875 18.01244064 12.01905645 14 12 C14 22.23 14 32.46 14 43 C23.24 43 32.48 43 42 43 C42 46.96 42 50.92 42 55 C32.43 55 22.86 55 13 55 C13 64.9 13 74.8 13 85 C24.88 85 36.76 85 49 85 C49 88.63 49 92.26 49 96 C32.83 96 16.66 96 0 96 C0 64.32 0 32.64 0 0 Z " fill="#38743B" transform="translate(144,246)"/>
<path d="M0 0 C1.34644592 -0.00472824 1.34644592 -0.00472824 2.72009277 -0.009552 C4.18412537 -0.00651566 4.18412537 -0.00651566 5.67773438 -0.00341797 C6.67276978 -0.00437469 7.66780518 -0.00533142 8.69299316 -0.00631714 C10.80135155 -0.00699907 12.90971203 -0.0051439 15.01806641 -0.00097656 C18.25753465 0.0043715 21.49686423 -0.00092114 24.73632812 -0.00732422 C26.77929718 -0.00666344 28.82226615 -0.00538228 30.86523438 -0.00341797 C31.8412561 -0.0054422 32.81727783 -0.00746643 33.82287598 -0.009552 C34.72050659 -0.00639984 35.61813721 -0.00324768 36.54296875 0 C37.73424377 0.00119339 37.73424377 0.00119339 38.94958496 0.00241089 C40.77148438 0.12939453 40.77148438 0.12939453 41.77148438 1.12939453 C41.77148438 5.41939453 41.77148438 9.70939453 41.77148438 14.12939453 C31.54148437 14.12939453 21.31148437 14.12939453 10.77148438 14.12939453 C10.77148438 22.37939453 10.77148438 30.62939453 10.77148438 39.12939453 C19.35148437 39.12939453 27.93148437 39.12939453 36.77148438 39.12939453 C36.77148438 43.41939453 36.77148438 47.70939453 36.77148438 52.12939453 C28.19148438 52.12939453 19.61148438 52.12939453 10.77148438 52.12939453 C10.78308594 54.86091797 10.7946875 57.59244141 10.80664062 60.40673828 C10.8144308 63.04109582 10.82050778 65.6754521 10.82641602 68.30981445 C10.83145669 70.14608328 10.83828914 71.98234807 10.84692383 73.81860352 C10.8590011 76.45215854 10.86471519 79.0856607 10.86914062 81.71923828 C10.87430191 82.54528061 10.8794632 83.37132294 10.88478088 84.22239685 C10.88497642 86.19175821 10.83352589 88.16101067 10.77148438 90.12939453 C9.77148438 91.12939453 9.77148438 91.12939453 6.64648438 91.26220703 C5.36773437 91.25962891 4.08898437 91.25705078 2.77148438 91.25439453 C1.49273437 91.25697266 0.21398438 91.25955078 -1.10351562 91.26220703 C-4.22851562 91.12939453 -4.22851562 91.12939453 -5.22851562 90.12939453 C-5.32901776 87.36538045 -5.36467638 84.62632227 -5.35791016 81.86181641 C-5.35966248 80.99520889 -5.36141479 80.12860138 -5.36322021 79.23573303 C-5.36763987 76.3565168 -5.36470034 73.47736144 -5.36132812 70.59814453 C-5.36200113 68.60656726 -5.36297113 66.61499007 -5.36422729 64.62341309 C-5.36570442 60.44359558 -5.36354923 56.26379941 -5.35888672 52.08398438 C-5.35318942 46.71336927 -5.35646835 41.34280413 -5.36245918 35.97219086 C-5.36606439 31.85796733 -5.36492639 27.74375574 -5.36233139 23.62953186 C-5.36166201 21.64868667 -5.36249092 19.66784041 -5.36481094 17.68699646 C-5.36733682 14.92362578 -5.3634978 12.16033719 -5.35791016 9.39697266 C-5.35993439 8.56992325 -5.36195862 7.74287384 -5.36404419 6.89076233 C-5.33811478 0.00534759 -5.33811478 0.00534759 0 0 Z " fill="#37743A" transform="translate(63.228515625,141.87060546875)"/>
<path d="M0 0 C10.13918497 1.448455 16.66613645 4.786165 23 13 C30.52028257 25.58703666 33.52231255 39.93386538 30.25 54.5 C27.32126825 62.70044891 24.69856763 67.25916888 17 71.75 C13 73 13 73 0 73 C0 48.91 0 24.82 0 0 Z " fill="#ECE9DE" transform="translate(72,258)"/>
<path d="M0 0 C3 2.1875 3 2.1875 5 5 C5.556875 5.763125 6.11375 6.52625 6.6875 7.3125 C12.74709181 19.72023562 12.04364063 38.71366654 8.3125 51.75 C6.56642152 56.30714099 4.58930159 59.68679853 1 63 C-2.72177214 64.24059071 -6.13318303 64.53073958 -10 64 C-15.03554445 61.1388952 -17.86742965 56.53974052 -19.60351562 51.11376953 C-21.20711872 44.42942794 -21.33222171 37.91382044 -21.3125 31.0625 C-21.32861328 29.94681641 -21.34472656 28.83113281 -21.36132812 27.68164062 C-21.36691125 18.15124673 -20.0717029 9.58962862 -14 2 C-9.54587778 -0.96941482 -5.22146326 -0.75029824 0 0 Z " fill="#ECE9DE" transform="translate(143,156)"/>
<path d="M0 0 C5.53942857 3.22294026 7.36433822 7.08102247 9 13 C9.17200928 13.56887939 9.34401855 14.13775879 9.52124023 14.72387695 C10.6434075 20.05889246 10.22854211 25.69615293 10.25 31.125 C10.270625 32.40632813 10.29125 33.68765625 10.3125 35.0078125 C10.35495632 45.36715514 9.63690271 53.89902379 2.40234375 61.72265625 C-0.3834881 64.26016882 -3.12478631 64.47436983 -6.83984375 64.38671875 C-11.10033969 63.62398982 -13.41051714 61.34100833 -16 58 C-20.0265944 49.46572463 -20.5937263 41.17802434 -20.4375 31.875 C-20.44458984 30.67746094 -20.45167969 29.47992188 -20.45898438 28.24609375 C-20.38981066 18.52984704 -19.19846504 9.74808129 -13 2 C-8.73570551 -0.84286299 -5.0035206 -0.74039635 0 0 Z " fill="#ECEADF" transform="translate(211,156)"/>
<path d="M0 0 C0.70253906 0.00386719 1.40507812 0.00773438 2.12890625 0.01171875 C2.83144531 0.00785156 3.53398437 0.00398437 4.2578125 0 C9.50229247 0.01010497 9.50229247 0.01010497 10.62890625 1.13671875 C10.72940839 3.90073283 10.765067 6.63979101 10.75830078 9.40429688 C10.7600531 10.27090439 10.76180542 11.1375119 10.76361084 12.03038025 C10.7680305 14.90959648 10.76509097 17.78875184 10.76171875 20.66796875 C10.76239176 22.65954602 10.76336175 24.65112321 10.76461792 26.6427002 C10.76609505 30.8225177 10.76393986 35.00231388 10.75927734 39.18212891 C10.75358005 44.55274401 10.75685898 49.92330915 10.76284981 55.29392242 C10.76645502 59.40814595 10.76531702 63.52235754 10.76272202 67.63658142 C10.76205264 69.61742661 10.76288155 71.59827287 10.76520157 73.57911682 C10.76772744 76.34248751 10.76388843 79.10577609 10.75830078 81.86914062 C10.76032501 82.69619003 10.76234924 83.52323944 10.76443481 84.37535095 C10.74316869 90.02245631 10.74316869 90.02245631 9.62890625 91.13671875 C7.11754521 91.23646907 4.6398721 91.27554058 2.12890625 91.26171875 C1.42636719 91.26558594 0.72382813 91.26945312 0 91.2734375 C-5.24447997 91.26333253 -5.24447997 91.26333253 -6.37109375 90.13671875 C-6.47159589 87.37270467 -6.5072545 84.63364649 -6.50048828 81.86914062 C-6.5022406 81.00253311 -6.50399292 80.1359256 -6.50579834 79.24305725 C-6.510218 76.36384102 -6.50727847 73.48468566 -6.50390625 70.60546875 C-6.50457926 68.61389148 -6.50554925 66.62231429 -6.50680542 64.6307373 C-6.50828255 60.4509198 -6.50612736 56.27112362 -6.50146484 52.09130859 C-6.49576755 46.72069349 -6.49904648 41.35012835 -6.50503731 35.97951508 C-6.50864252 31.86529155 -6.50750452 27.75107996 -6.50490952 23.63685608 C-6.50424014 21.65601089 -6.50506905 19.67516463 -6.50738907 17.69432068 C-6.50991494 14.93094999 -6.50607593 12.16766141 -6.50048828 9.40429688 C-6.50251251 8.57724747 -6.50453674 7.75019806 -6.50662231 6.89808655 C-6.48069221 0.01248688 -6.48069221 0.01248688 0 0 Z " fill="#3C773F" transform="translate(378.37109375,141.86328125)"/>
<path d="M0 0 C4.95 0 9.9 0 15 0 C16.20551017 12.10639999 17.20998875 24.22147093 17.99127197 36.36254883 C18.12133028 38.38055986 18.25567143 40.39829345 18.39013672 42.41601562 C18.8006036 49.00000345 19.1000832 55.57576396 19.16796875 62.171875 C19.18110107 63.36780273 19.1942334 64.56373047 19.20776367 65.79589844 C18.90389296 70.48214903 17.64486397 73.14605535 15 77 C10.96839035 79.68773977 7.73576122 79.67415933 3 79 C-1.1144046 76.63640587 -2.66393966 74.47903931 -4 70 C-4.29261158 66.7050048 -4.27866449 63.43097087 -4.25 60.125 C-4.25773438 59.27164063 -4.26546875 58.41828125 -4.2734375 57.5390625 C-4.25788764 52.25211147 -3.80024172 47.16035297 -3.0546875 41.92578125 C-1.8324855 33.32453464 -1.33003078 24.73315789 -0.875 16.0625 C-0.7882911 14.49280914 -0.70105403 12.92314736 -0.61328125 11.35351562 C-0.40182976 7.5693319 -0.20111444 3.78480257 0 0 Z " fill="#EC6E0C" transform="translate(211,286)"/>
<path d="M0 0 C0.33 0 0.66 0 1 0 C1 3.63 1 7.26 1 11 C4.96 8.36 8.92 5.72 13 3 C13.99 3.495 13.99 3.495 15 4 C14.21753906 4.55429687 13.43507813 5.10859375 12.62890625 5.6796875 C11.61699219 6.40414063 10.60507812 7.12859375 9.5625 7.875 C8.04849609 8.95394531 8.04849609 8.95394531 6.50390625 10.0546875 C3.94203753 11.7559726 3.94203753 11.7559726 3 14 C4.65 14 6.3 14 8 14 C8 14.33 8 14.66 8 15 C7.17822266 14.95166016 7.17822266 14.95166016 6.33984375 14.90234375 C-7.97607121 15.11184494 -25.36793868 29.15010704 -35.64355469 38.49462891 C-37.41454618 40.46005971 -38.13000726 42.5238668 -39 45 C-37.515 45.495 -37.515 45.495 -36 46 C-36.69222656 46.24492187 -37.38445312 46.48984375 -38.09765625 46.7421875 C-52.4421286 52.22294769 -64.09591028 61.74254201 -76.14990234 71.02661133 C-83.90758464 76.98554362 -91.86388746 82.57371827 -100 88 C-101.21751812 88.81630155 -102.43496736 89.63270584 -103.65234375 90.44921875 C-106.42921771 92.30809503 -109.2123064 94.15737677 -112 96 C-108.32774539 94.01018803 -104.66289944 92.00696365 -101 90 C-100.31421875 89.62488281 -99.6284375 89.24976563 -98.921875 88.86328125 C-85.25767087 81.37704175 -72.03093356 73.39837445 -58.99780273 64.85571289 C-46.96592475 57 -46.96592475 57 -44 57 C-44 57.66 -44 58.32 -44 59 C-44.99 59.495 -44.99 59.495 -46 60 C-44.35 60 -42.7 60 -41 60 C-42.57710637 61.81367232 -43.534595 62.88506603 -45.90405273 63.47021484 C-49.38990553 64.35132149 -52.13798155 66.60608423 -55.0625 68.625 C-56.42395965 69.54764207 -57.7859412 70.46951447 -59.1484375 71.390625 C-60.14375488 72.06641602 -60.14375488 72.06641602 -61.15917969 72.75585938 C-125.29297666 116.10146009 -125.29297666 116.10146009 -148 115 C-146.83429559 111.50288677 -146.1698588 111.1925849 -143.1328125 109.328125 C-141.93652222 108.58453735 -141.93652222 108.58453735 -140.71606445 107.82592773 C-139.86101318 107.30587158 -139.00596191 106.78581543 -138.125 106.25 C-136.81825317 105.43994507 -136.81825317 105.43994507 -135.48510742 104.61352539 C-132.9939547 103.06928443 -130.49731819 101.53424114 -128 100 C-113.34730664 90.88074612 -99.30623673 80.89128326 -85.36914062 70.72216797 C-82.90453863 68.93060753 -80.42935066 67.15435815 -77.953125 65.37890625 C-65.20756498 56.19377196 -55.34503727 47.43846602 -47 34 C-46.34 34.99 -45.68 35.98 -45 37 C-45.495 37.99 -45.495 37.99 -46 39 C-41.15997274 37.70508043 -38.35803629 35.88505615 -34.75 32.4375 C-30.13559322 28.06779661 -30.13559322 28.06779661 -28 27 C-27.53045739 23.95418731 -27.53045739 23.95418731 -27.375 20.4375 C-27.30023438 19.23996094 -27.22546875 18.04242188 -27.1484375 16.80859375 C-27.07496094 15.41833984 -27.07496094 15.41833984 -27 14 C-26.67 14 -26.34 14 -26 14 C-25.505 19.445 -25.505 19.445 -25 25 C-23.81921875 24.37351562 -22.6384375 23.74703125 -21.421875 23.1015625 C-19.86459632 22.27601717 -18.30730393 21.45049769 -16.75 20.625 C-15.97269531 20.2125 -15.19539062 19.8 -14.39453125 19.375 C-13.64042969 18.97539062 -12.88632812 18.57578125 -12.109375 18.1640625 C-11.07248535 17.61419678 -11.07248535 17.61419678 -10.01464844 17.05322266 C-9.34981445 16.70565918 -8.68498047 16.3580957 -8 16 C-7.31711914 15.62536621 -6.63423828 15.25073242 -5.93066406 14.86474609 C-4 14 -4 14 -1 14 C-1.01160156 13.32453125 -1.02320313 12.6490625 -1.03515625 11.953125 C-1.04417969 11.06109375 -1.05320312 10.1690625 -1.0625 9.25 C-1.07410156 8.36828125 -1.08570313 7.4865625 -1.09765625 6.578125 C-1.00826198 4.2181162 -0.66912821 2.25501476 0 0 Z " fill="#417B42" transform="translate(373,288)"/>
<path d="M0 0 C4.95 0 9.9 0 15 0 C15 30.03 15 60.06 15 91 C10.05 91 5.1 91 0 91 C0 60.97 0 30.94 0 0 Z " fill="#347337" transform="translate(348,142)"/>
<path d="M0 0 C4.08929084 1.48701485 5.24196318 3.67477338 7.125 7.5 C7.87136719 8.96953125 7.87136719 8.96953125 8.6328125 10.46875 C12.20510553 19.69547257 12.40155893 29.05017464 12.42553711 38.82910156 C12.43737353 41.10072733 12.48663611 43.36957411 12.53710938 45.640625 C12.67984298 58.45952868 10.61972554 70.39643264 3 81 C1.10424805 80.70947266 1.10424805 80.70947266 -1 80 C-2.28003309 77.42794288 -3.26232359 75.07122839 -4.1875 72.375 C-4.44724609 71.67503906 -4.70699219 70.97507812 -4.97460938 70.25390625 C-7.51884921 63.16685058 -8.1564054 56.27147841 -8.16796875 48.7578125 C-8.17129715 47.99000458 -8.17462555 47.22219666 -8.17805481 46.43112183 C-8.1830891 44.81590366 -8.18546422 43.20067522 -8.18530273 41.58544922 C-8.18748766 39.13881995 -8.20567628 36.69264342 -8.22460938 34.24609375 C-8.2644405 23.77378329 -7.88765287 14.91795217 -2.875 5.4375 C-2.06675781 3.88869141 -2.06675781 3.88869141 -1.2421875 2.30859375 C-0.62730469 1.16583984 -0.62730469 1.16583984 0 0 Z " fill="#EBE9DE" transform="translate(262,147)"/>
<path d="M0 0 C4.29 0 8.58 0 13 0 C13 31.68 13 63.36 13 96 C8.71 96 4.42 96 0 96 C0 64.32 0 32.64 0 0 Z " fill="#357337" transform="translate(121,246)"/>
<path d="M0 0 C8.89727263 0.115549 16.41860135 3.25172102 22.8125 9.4375 C26.36376549 13.22102125 28.13710207 15.86306217 28.3125 21.125 C28.27125 22.1975 28.23 23.27 28.1875 24.375 C28.661875 23.529375 29.13625 22.68375 29.625 21.8125 C32.54592921 17.44153808 36.63555244 13.96953335 41.1875 11.375 C43.97265625 11.1796875 43.97265625 11.1796875 46.1875 11.375 C46.72788304 17.90763049 46.81593683 23.01417592 42.8828125 28.453125 C34.08619895 38.42532284 34.08619895 38.42532284 28.1875 39.375 C26.8603739 35.3936217 27.11834087 31.52454773 27.1875 27.375 C26.5275 27.375 25.8675 27.375 25.1875 27.375 C24.8575 29.025 24.5275 30.675 24.1875 32.375 C22.59778035 29.99042052 21.32008407 27.7445876 20.0625 25.1875 C19.70929688 24.47207031 19.35609375 23.75664063 18.9921875 23.01953125 C18.72664063 22.47683594 18.46109375 21.93414062 18.1875 21.375 C18.46464844 22.25542969 18.74179687 23.13585937 19.02734375 24.04296875 C19.38957031 25.20441406 19.75179688 26.36585937 20.125 27.5625 C20.48464844 28.71105469 20.84429687 29.85960938 21.21484375 31.04296875 C22.02506036 33.81853006 22.67884307 36.53187548 23.1875 39.375 C13.54803837 38.15768179 5.21246349 32.93359056 -0.8125 25.375 C-1.31910156 24.74207031 -1.82570313 24.10914062 -2.34765625 23.45703125 C-6.91502525 16.67595136 -6.5161878 9.2563034 -5.8125 1.375 C-4.15655198 -0.28094802 -2.28157488 0.08486545 0 0 Z " fill="#38743B" transform="translate(340.8125,97.625)"/>
<path d="M0 0 C7.6628847 1.27714745 11.71047624 3.90604897 16.3125 10.125 C21.49445269 20.62709079 22.77864076 33.13226636 19.8125 44.4375 C17.84887224 50.08981168 15.20917307 53.55923495 10.125 56.875 C7 58 7 58 0 58 C0 38.86 0 19.72 0 0 Z " fill="#EAE8DE" transform="translate(306,159)"/>
<path d="M0 0 C0 0.99 0 1.98 0 3 C-0.66 3 -1.32 3 -2 3 C-1.938125 4.010625 -1.87625 5.02125 -1.8125 6.0625 C-1.79187928 10.16333357 -2.57775766 13.83739583 -3.4921875 17.828125 C-5.1892067 25.7978031 -5.41357365 33.54096415 -5.3125 41.6875 C-5.31572266 42.99783203 -5.31894531 44.30816406 -5.32226562 45.65820312 C-5.9840368 58.54391744 -5.9840368 58.54391744 -2 70 C-2.28730055 72.33944736 -2.61936779 74.6739143 -3 77 C-2.01 77 -1.02 77 0 77 C0 77.66 0 78.32 0 79 C-3.26330897 78.70333555 -5.45630302 78.39977719 -8.125 76.4375 C-10.65114859 73.15350683 -12.32993441 69.77724881 -14 66 C-14.27392578 65.39478516 -14.54785156 64.78957031 -14.83007812 64.16601562 C-17.49612864 57.36792773 -17.49019459 50.51307565 -17.44604492 43.30834961 C-17.43755564 41.20130868 -17.46633835 39.0970076 -17.49804688 36.99023438 C-17.57135779 23.00838473 -13.92658233 12.11399644 -4.8125 1.4375 C-3 0 -3 0 0 0 Z " fill="#367639" transform="translate(259,148)"/>
<path d="M0 0 C3 1 3 1 4.31640625 2.96875 C9.0622032 12.60911497 10.31379863 21.32776283 11 32 C11.16435547 30.948125 11.16435547 30.948125 11.33203125 29.875 C13.10662983 19.25626379 15.14112441 11.36543672 24.1875 4.625 C27 3 27 3 29 3 C26.91375091 12.29661874 23.6158086 20.94075484 18.04296875 28.73828125 C15.42279117 32.92154757 13.87865101 37.2336941 12.25 41.875 C11.93417969 42.75414062 11.61835938 43.63328125 11.29296875 44.5390625 C10.52135523 46.69022746 9.75727215 48.84375375 9 51 C8.34 51 7.68 51 7 51 C6.86464844 50.443125 6.72929687 49.88625 6.58984375 49.3125 C4.74155652 42.76048779 1.68535794 38.83457316 -3 34 C-8.4331162 28.27694952 -12 23.24405929 -12 15 C-3.65087003 18.71072443 0.52018024 25.24459742 4.046875 33.4296875 C4.74133434 35.27065991 5.37778997 37.13336992 6 39 C5.16605052 33.84268087 4.21015028 29.25764258 1.875 24.5625 C-1.4379179 16.94278882 -0.30038203 8.12700275 0 0 Z " fill="#3B783E" transform="translate(281,232)"/>
<path d="M0 0 C0.33 0 0.66 0 1 0 C1 3.63 1 7.26 1 11 C4.96 8.36 8.92 5.72 13 3 C13.99 3.495 13.99 3.495 15 4 C14.21753906 4.55429687 13.43507813 5.10859375 12.62890625 5.6796875 C11.61699219 6.40414063 10.60507812 7.12859375 9.5625 7.875 C8.04849609 8.95394531 8.04849609 8.95394531 6.50390625 10.0546875 C3.94203753 11.7559726 3.94203753 11.7559726 3 14 C4.65 14 6.3 14 8 14 C8 14.33 8 14.66 8 15 C7.17822266 14.95166016 7.17822266 14.95166016 6.33984375 14.90234375 C-7.97607121 15.11184494 -25.36793868 29.15010704 -35.64355469 38.49462891 C-37.41454618 40.46005971 -38.13000726 42.5238668 -39 45 C-37.515 45.495 -37.515 45.495 -36 46 C-36.69222656 46.24492187 -37.38445312 46.48984375 -38.09765625 46.7421875 C-52.43435719 52.21997837 -64.07914837 61.73190893 -76.12792969 71.0090332 C-81.72545899 75.30753837 -87.37904814 79.49050178 -93.1875 83.5 C-93.85257568 83.96269287 -94.51765137 84.42538574 -95.20288086 84.90209961 C-99.74811645 88 -99.74811645 88 -102 88 C-102 87.01 -102 86.02 -102 85 C-102.66 84.67 -103.32 84.34 -104 84 C-102.99324219 83.29617188 -101.98648437 82.59234375 -100.94921875 81.8671875 C-73.13757528 63.01865173 -73.13757528 63.01865173 -50 39 C-48.67065226 37.33015266 -47.33836031 35.66263263 -46 34 C-45.67 34.99 -45.34 35.98 -45 37 C-45.495 37.99 -45.495 37.99 -46 39 C-41.15997274 37.70508043 -38.35803629 35.88505615 -34.75 32.4375 C-30.13559322 28.06779661 -30.13559322 28.06779661 -28 27 C-27.53045739 23.95418731 -27.53045739 23.95418731 -27.375 20.4375 C-27.30023438 19.23996094 -27.22546875 18.04242188 -27.1484375 16.80859375 C-27.07496094 15.41833984 -27.07496094 15.41833984 -27 14 C-26.67 14 -26.34 14 -26 14 C-25.505 19.445 -25.505 19.445 -25 25 C-23.81921875 24.37351562 -22.6384375 23.74703125 -21.421875 23.1015625 C-19.86459632 22.27601717 -18.30730393 21.45049769 -16.75 20.625 C-15.97269531 20.2125 -15.19539063 19.8 -14.39453125 19.375 C-13.64042969 18.97539062 -12.88632812 18.57578125 -12.109375 18.1640625 C-11.41811523 17.79748535 -10.72685547 17.4309082 -10.01464844 17.05322266 C-9.34981445 16.70565918 -8.68498047 16.3580957 -8 16 C-7.31711914 15.62536621 -6.63423828 15.25073242 -5.93066406 14.86474609 C-4 14 -4 14 -1 14 C-1.01160156 13.32453125 -1.02320313 12.6490625 -1.03515625 11.953125 C-1.04417969 11.06109375 -1.05320312 10.1690625 -1.0625 9.25 C-1.07410156 8.36828125 -1.08570313 7.4865625 -1.09765625 6.578125 C-1.00826198 4.2181162 -0.66912821 2.25501476 0 0 Z " fill="#437B43" transform="translate(373,288)"/>
<path d="M0 0 C14.52 0 29.04 0 44 0 C42.90618158 4.37527369 42.19556172 5.88237881 39 9 C36.45357706 10.19710675 33.89859032 11.17927489 31.2421875 12.10546875 C28.84665163 12.89018324 28.84665163 12.89018324 27 15 C26.69324768 17.89967757 26.48826629 20.71783178 26.375 23.625 C26.33632812 24.42679687 26.29765625 25.22859375 26.2578125 26.0546875 C26.16346069 28.03607556 26.08063785 30.01800645 26 32 C23.36 32 20.72 32 18 32 C17.95101562 30.87980469 17.90203125 29.75960938 17.8515625 28.60546875 C17.77652144 27.13278797 17.70097418 25.66013293 17.625 24.1875 C17.5940625 23.44951172 17.563125 22.71152344 17.53125 21.95117188 C17.32653852 18.18106885 17.13566173 16.20349259 15 13 C12.72422453 11.9135642 12.72422453 11.9135642 10.125 11.0625 C6.27367015 9.59532672 3.42838073 8.48419844 1 5 C0.67 3.35 0.34 1.7 0 0 Z " fill="#3E7740" transform="translate(197,252)"/>
<path d="M0 0 C0 0.99 0 1.98 0 3 C0.99 3.66 1.98 4.32 3 5 C2.29617188 5.268125 1.59234375 5.53625 0.8671875 5.8125 C-10.84076784 10.45899925 -21.18749828 16.70629022 -31.57421875 23.75 C-39.17955731 28.81563726 -47.12748297 33.36689189 -55 38 C-55.96470215 38.56992676 -56.9294043 39.13985352 -57.92333984 39.72705078 C-60.81814771 41.43226385 -63.72011737 43.12451751 -66.625 44.8125 C-67.5317749 45.34649414 -68.4385498 45.88048828 -69.37280273 46.43066406 C-70.63072632 47.15527832 -70.63072632 47.15527832 -71.9140625 47.89453125 C-73.0270874 48.54192261 -73.0270874 48.54192261 -74.16259766 49.20239258 C-74.76894043 49.46560303 -75.3752832 49.72881348 -76 50 C-76.66 49.67 -77.32 49.34 -78 49 C-77.25878906 48.48953125 -76.51757812 47.9790625 -75.75390625 47.453125 C-72.82889159 45.43389824 -69.90749838 43.4096416 -66.98876953 41.38134766 C-65.67807506 40.47097332 -64.36656988 39.56176491 -63.05419922 38.65380859 C-55.30149834 33.28299643 -47.68411981 27.79185994 -40.23242188 22.00854492 C-8.02706571 -2.9729873 -8.02706571 -2.9729873 0 0 Z " fill="#E3E7D8" transform="translate(338,335)"/>
<path d="M0 0 C2.88163975 1.91565867 5.34984877 3.98019507 7.87109375 6.34765625 C8.57363281 6.89292969 9.27617187 7.43820312 10 8 C10.99 7.67 11.98 7.34 13 7 C13 7.99 13 8.98 13 10 C17.62 10 22.24 10 27 10 C27 11.32 27 12.64 27 14 C-0.35914789 16.8530955 -0.35914789 16.8530955 -12.01953125 13.40234375 C-14.34666365 12.78149818 -14.34666365 12.78149818 -18 14 C-18.33 18.29 -18.66 22.58 -19 27 C-19.33 27 -19.66 27 -20 27 C-20.50528803 17.91885127 -20.34806264 10.7747707 -14.75 3.33984375 C-10.59090169 -0.9019639 -5.504484 -1.46678783 0 0 Z " fill="#E97014" transform="translate(280,275)"/>
<path d="M0 0 C0.33 0 0.66 0 1 0 C1 18.15 1 36.3 1 55 C7.93 55 14.86 55 22 55 C20.515 55.495 20.515 55.495 19 56 C19.33 56.99 19.66 57.98 20 59 C19.46890625 59.35191406 18.9378125 59.70382813 18.390625 60.06640625 C10.10148984 65.85972517 7.24400402 72.12342224 5.4375 82.109375 C4.93710841 85.07002524 4.45803256 88.03253374 4 91 C3.67 91 3.34 91 3 91 C2.96261719 89.97261719 2.92523438 88.94523437 2.88671875 87.88671875 C2.51457931 79.52571628 1.57806105 72.01440719 -1 64 C-2.13004484 60.26008969 -2.13004484 60.26008969 -1 58 C-0.34 58 0.32 58 1 58 C0.67 57.34 0.34 56.68 0 56 C-0.15378852 54.04225931 -0.24971463 52.07982648 -0.31640625 50.1171875 C-0.35830078 48.95058594 -0.40019531 47.78398437 -0.44335938 46.58203125 C-0.48267578 45.35871094 -0.52199219 44.13539063 -0.5625 42.875 C-0.60568359 41.64394531 -0.64886719 40.41289062 -0.69335938 39.14453125 C-0.79968704 36.09647147 -0.90171781 33.0483281 -1 30 C-1.66 30.33 -2.32 30.66 -3 31 C-2.67 26.71 -2.34 22.42 -2 18 C-1.67 18 -1.34 18 -1 18 C-0.505 9.09 -0.505 9.09 0 0 Z " fill="#E3E6D7" transform="translate(288,177)"/>
<path d="M0 0 C0.54038304 6.53263049 0.62843683 11.63917592 -3.3046875 17.078125 C-7.57984102 21.9246124 -11.63326773 26.40831693 -18 28 C-18.66 23.05 -19.32 18.1 -20 13 C-19.34 13 -18.68 13 -18 13 C-17.484375 12.154375 -16.96875 11.30875 -16.4375 10.4375 C-12.75979701 4.64442649 -7.1184307 -0.62772757 0 0 Z " fill="#96BE2C" transform="translate(387,109)"/>
<path d="M0 0 C0.99 0.33 1.98 0.66 3 1 C2.36191406 1.48210937 1.72382813 1.96421875 1.06640625 2.4609375 C0.24011719 3.09257812 -0.58617187 3.72421875 -1.4375 4.375 C-2.26121094 5.00148438 -3.08492188 5.62796875 -3.93359375 6.2734375 C-6.08528092 7.83753904 -6.08528092 7.83753904 -7 10 C-6.14341797 10.14695312 -6.14341797 10.14695312 -5.26953125 10.296875 C0.95707122 11.44518325 6.83239975 13.15078148 12.82421875 15.1953125 C16.45483028 16.11524605 19.26901415 16.40655464 23 16 C25.86380919 14.29667128 25.86380919 14.29667128 28.375 11.875 C31.82665334 8.87025494 35.23189473 5.97707921 39 3.375 C40.051875 2.64410156 40.051875 2.64410156 41.125 1.8984375 C43 1 43 1 46 2 C43.91689914 3.60446931 41.83352773 5.20858518 39.75 6.8125 C39.16347656 7.26431641 38.57695312 7.71613281 37.97265625 8.18164062 C36.83004857 9.06106339 35.68620256 9.93888 34.54101562 10.81494141 C33.25233593 11.80595079 31.97614086 12.81316704 30.703125 13.82421875 C29 15 29 15 27 15 C27 15.66 27 16.32 27 17 C29.83404585 16.88494258 32.66679619 16.75822275 35.5 16.625 C36.29148437 16.5940625 37.08296875 16.563125 37.8984375 16.53125 C41.86780999 16.33603496 45.50549158 15.95769713 49.34375 14.8984375 C52.81153937 14.04630977 53.79958003 13.9952375 57 15 C37.22480795 22.37380043 17.50484927 21.22727636 -2.125 14.25 C-6.53955426 12.71339554 -10.55402024 11.88993846 -14.98828125 13.90234375 C-16.69952685 14.86599107 -18.35566858 15.92615091 -20 17 C-19.67 17.66 -19.34 18.32 -19 19 C-21.64 19 -24.28 19 -27 19 C-24.91048292 16.78220755 -22.80524827 15.10639195 -20.234375 13.4765625 C-19.50863281 13.0125 -18.78289062 12.5484375 -18.03515625 12.0703125 C-16.90400391 11.35488281 -16.90400391 11.35488281 -15.75 10.625 C-14.26455647 9.68136746 -12.7801698 8.73606905 -11.296875 7.7890625 C-10.57564453 7.33047852 -9.85441406 6.87189453 -9.11132812 6.39941406 C-7.05434277 5.03601905 -5.10405552 3.57967249 -3.140625 2.0859375 C-2.10421875 1.39757812 -1.0678125 0.70921875 0 0 Z " fill="#CADBC2" transform="translate(326,350)"/>
<path d="M0 0 C14.85 0 29.7 0 45 0 C45 1.98 45 3.96 45 6 C30.15 6 15.3 6 0 6 C0 4.02 0 2.04 0 0 Z " fill="#3C753E" transform="translate(196,244)"/>
<path d="M0 0 C0.33 0 0.66 0 1 0 C1 3.63 1 7.26 1 11 C4.96 8.36 8.92 5.72 13 3 C13.99 3.495 13.99 3.495 15 4 C14.21753906 4.55429687 13.43507813 5.10859375 12.62890625 5.6796875 C11.61699219 6.40414063 10.60507812 7.12859375 9.5625 7.875 C8.55316406 8.59429687 7.54382813 9.31359375 6.50390625 10.0546875 C3.94203753 11.7559726 3.94203753 11.7559726 3 14 C4.65 14 6.3 14 8 14 C8 14.33 8 14.66 8 15 C7.17822266 14.95166016 7.17822266 14.95166016 6.33984375 14.90234375 C-7.23649277 15.10102185 -19.46795674 26.61838509 -30.03125 34.1953125 C-34.15095571 37.13542752 -38.38521734 39.85975073 -42.703125 42.5 C-45.27545104 44.17988639 -47.62868283 46.04912913 -50 48 C-50.66 47.67 -51.32 47.34 -52 47 C-50.37528319 45.57649977 -48.74992706 44.15372347 -47.12158203 42.734375 C-45.74286151 41.53122311 -44.36755466 40.32414876 -42.99560547 39.11328125 C-39.34499779 35.91824313 -35.72417706 33.11098312 -31.625 30.5 C-28.66321139 28.31616712 -28.0804292 27.34935146 -27.23828125 23.69140625 C-26.96773526 20.42728643 -26.87702669 17.27109008 -27 14 C-26.67 14 -26.34 14 -26 14 C-25.67 17.63 -25.34 21.26 -25 25 C-23.81921875 24.37351562 -22.6384375 23.74703125 -21.421875 23.1015625 C-19.86459632 22.27601717 -18.30730393 21.45049769 -16.75 20.625 C-15.97269531 20.2125 -15.19539063 19.8 -14.39453125 19.375 C-13.64042969 18.97539062 -12.88632812 18.57578125 -12.109375 18.1640625 C-11.41811523 17.79748535 -10.72685547 17.4309082 -10.01464844 17.05322266 C-9.34981445 16.70565918 -8.68498047 16.3580957 -8 16 C-7.31711914 15.62536621 -6.63423828 15.25073242 -5.93066406 14.86474609 C-4 14 -4 14 -1 14 C-1.01160156 13.32453125 -1.02320313 12.6490625 -1.03515625 11.953125 C-1.04417969 11.06109375 -1.05320312 10.1690625 -1.0625 9.25 C-1.07410156 8.36828125 -1.08570313 7.4865625 -1.09765625 6.578125 C-1.00826198 4.2181162 -0.66912821 2.25501476 0 0 Z " fill="#BBD3B4" transform="translate(373,288)"/>
<path d="M0 0 C3 2 3 2 3.75 3.8125 C4.04586304 6.40130161 3.55253222 8.46756066 3 11 C0.5622037 11.05397335 -1.87439685 11.09365616 -4.3125 11.125 C-5.34793945 11.15013672 -5.34793945 11.15013672 -6.40429688 11.17578125 C-10.17135396 11.21217794 -11.78431704 11.14378864 -15 9 C-15.5 6.625 -15.5 6.625 -15 4 C-11.02149499 -0.90682285 -5.87923557 -0.85697332 0 0 Z " fill="#F26703" transform="translate(280,275)"/>
<path d="M0 0 C1.0625 1.8125 1.0625 1.8125 2 4 C1.67 4.99 1.34 5.98 1 7 C1.75150023 10.27773504 1.75150023 10.27773504 5 12 C0.05 15.63 -4.9 19.26 -10 23 C-10.66 22.67 -11.32 22.34 -12 22 C-12 21.34 -12 20.68 -12 20 C-11.34 20 -10.68 20 -10 20 C-10 19.34 -10 18.68 -10 18 C-11.65 18 -13.3 18 -15 18 C-14.195625 17.071875 -13.39125 16.14375 -12.5625 15.1875 C-8.28354449 10.20051588 -4.14725424 5.09651465 0 0 Z " fill="#ECE3D0" transform="translate(303,333)"/>
<path d="M0 0 C0.495 0.99 0.495 0.99 1 2 C0.67 2.66 0.34 3.32 0 4 C0.99 4.66 1.98 5.32 3 6 C0.15625 7.625 0.15625 7.625 -2.6875 9.25 C-3.29456787 9.59699951 -3.90163574 9.94399902 -4.52709961 10.30151367 C-8.4936545 12.56860538 -12.46125381 14.8338547 -16.4296875 17.09765625 C-17.36079346 17.62907227 -18.29189941 18.16048828 -19.2512207 18.70800781 C-21.10107097 19.76377993 -22.95116214 20.81913009 -24.80151367 21.87402344 C-25.66236572 22.36547852 -26.52321777 22.85693359 -27.41015625 23.36328125 C-28.61889404 24.05091553 -28.61889404 24.05091553 -29.85205078 24.75244141 C-31.59303505 25.76362913 -33.30043784 26.83248367 -34.99609375 27.91796875 C-35.98802734 28.45357422 -35.98802734 28.45357422 -37 29 C-37.66 28.67 -38.32 28.34 -39 28 C-38.25878906 27.48953125 -37.51757812 26.9790625 -36.75390625 26.453125 C-18.03692981 13.68860197 -18.03692981 13.68860197 0 0 Z " fill="#E5E7D7" transform="translate(299,356)"/>
<path d="M0 0 C0.99 0.33 1.98 0.66 3 1 C0.91689914 2.60446931 -1.16647227 4.20858518 -3.25 5.8125 C-3.83652344 6.26431641 -4.42304688 6.71613281 -5.02734375 7.18164062 C-6.16995143 8.06106339 -7.31379744 8.93888 -8.45898438 9.81494141 C-9.74766407 10.80595079 -11.02385914 11.81316704 -12.296875 12.82421875 C-14 14 -14 14 -16 14 C-16 14.66 -16 15.32 -16 16 C-13.16595415 15.88494258 -10.33320381 15.75822275 -7.5 15.625 C-6.70851563 15.5940625 -5.91703125 15.563125 -5.1015625 15.53125 C-1.13219001 15.33603496 2.50549158 14.95769713 6.34375 13.8984375 C9.81153937 13.04630977 10.79958003 12.9952375 14 14 C1.78965666 18.55300938 -10.10593116 19.32101416 -23 19 C-23.33 18.34 -23.66 17.68 -24 17 C-22.68 17 -21.36 17 -20 17 C-19.73952881 16.39623535 -19.47905762 15.7924707 -19.21069336 15.17041016 C-17.90469902 12.82915393 -16.79302302 11.81711396 -14.62890625 10.2734375 C-13.64374023 9.561875 -13.64374023 9.561875 -12.63867188 8.8359375 C-11.95353516 8.35382813 -11.26839844 7.87171875 -10.5625 7.375 C-9.88123047 6.88515625 -9.19996094 6.3953125 -8.49804688 5.890625 C-5.69328681 3.87976862 -2.87185123 1.91456749 0 0 Z " fill="#AAC7A5" transform="translate(369,351)"/>
<path d="M0 0 C-0.99 0.99 -1.98 1.98 -3 3 C-2.34 4.32 -1.68 5.64 -1 7 C-2.794375 6.2884375 -2.794375 6.2884375 -4.625 5.5625 C-10.93351712 3.42265099 -17.39095639 3.2726348 -24 3 C-16.32700776 -4.81596725 -9.79199786 -3.7302849 0 0 Z " fill="#457B44" transform="translate(329,365)"/>
<path d="M0 0 C1.9375 0.3125 1.9375 0.3125 4 1 C5.15030328 4.45090983 5.12947134 7.14639812 5.1328125 10.78515625 C5.13376923 11.44204941 5.13472595 12.09894257 5.13571167 12.77574158 C5.13639113 14.16177466 5.13455314 15.54781095 5.13037109 16.93383789 C5.12501091 19.05817783 5.1303283 21.18230717 5.13671875 23.30664062 C5.13605809 24.6536463 5.13477719 26.00065185 5.1328125 27.34765625 C5.13168457 28.57492432 5.13055664 29.80219238 5.12939453 31.06665039 C5 34 5 34 4 36 C3.34 36 2.68 36 2 36 C2 35.34 2 34.68 2 34 C1.34 34 0.68 34 0 34 C0.16242188 33.03964844 0.32484375 32.07929688 0.4921875 31.08984375 C1.13446225 26.5768991 1.14668973 22.11372874 1.125 17.5625 C1.12886719 16.75490234 1.13273438 15.94730469 1.13671875 15.11523438 C1.12845902 9.99007037 0.7338218 5.07268877 0 0 Z " fill="#E2E9D9" transform="translate(169,171)"/>
<path d="M0 0 C8.25 0 16.5 0 25 0 C25 0.99 25 1.98 25 3 C21.79217315 3.338329 18.58366902 3.66976146 15.375 4 C14.47136719 4.09539062 13.56773437 4.19078125 12.63671875 4.2890625 C8.06936961 4.75579891 3.59882812 5.12222799 -1 5 C-0.73323796 6.98491642 -0.73323796 6.98491642 0 9 C0.99 9.33 1.98 9.66 3 10 C1.35 9.67 -0.3 9.34 -2 9 C-2.66 7.02 -3.32 5.04 -4 3 C5.9 2.505 5.9 2.505 16 2 C10.72 1.67 5.44 1.34 0 1 C0 0.67 0 0.34 0 0 Z " fill="#E57A26" transform="translate(268,316)"/>
<path d="M0 0 C10.56 0 21.12 0 32 0 C27.22482101 4.77517899 16.98739235 3.15831289 10.68359375 3.23046875 C6.76418929 2.9852462 3.71467661 2.20954078 0 1 C0 0.67 0 0.34 0 0 Z " fill="#EFC086" transform="translate(273,287)"/>
<path d="M0 0 C0.33 0 0.66 0 1 0 C1.33 3.96 1.66 7.92 2 12 C2.33 9.36 2.66 6.72 3 4 C3.33 4 3.66 4 4 4 C4.33 5.98 4.66 7.96 5 10 C5.99 10 6.98 10 8 10 C6.35 14.29 4.7 18.58 3 23 C2.67 23 2.34 23 2 23 C1.01 19.7 0.02 16.4 -1 13 C-1.99 14.485 -1.99 14.485 -3 16 C-3.66 13.36 -4.32 10.72 -5 8 C-4.34 8 -3.68 8 -3 8 C-2.67 8.99 -2.34 9.98 -2 11 C-1.34 11 -0.68 11 0 11 C0 7.37 0 3.74 0 0 Z " fill="#4D7E4A" transform="translate(290,252)"/>
<path d="M0 0 C3.04049801 3.64859761 4.96518762 7.7444533 7 12 C7.33 11.01 7.66 10.02 8 9 C8.66 9 9.32 9 10 9 C10.33 12.96 10.66 16.92 11 21 C10.67 20.34 10.34 19.68 10 19 C9.01 19 8.02 19 7 19 C7 19.99 7 20.98 7 22 C6.34 21.67 5.68 21.34 5 21 C4.61759242 19.34390419 4.29577065 17.6737409 4 16 C2.98706125 12.6398096 1.91402893 9.30199744 0.83984375 5.9609375 C0 3 0 3 0 0 Z " fill="#D4DFC2" transform="translate(358,116)"/>
<path d="M0 0 C0.33 0.99 0.66 1.98 1 3 C-1.18652739 3.33965474 -3.37428025 3.67142477 -5.5625 4 C-7.38974609 4.2784375 -7.38974609 4.2784375 -9.25390625 4.5625 C-12.87627848 4.98555077 -16.35712046 5.07501425 -20 5 C-20.33 6.32 -20.66 7.64 -21 9 C-21 7.35 -21 5.7 -21 4 C-17.535 3.505 -17.535 3.505 -14 3 C-16.64 2.67 -19.28 2.34 -22 2 C-22 1.67 -22 1.34 -22 1 C-14.65623924 0.42240084 -7.36901413 -0.14738028 0 0 Z " fill="#EA914A" transform="translate(283,306)"/>
<path d="M0 0 C0.66 0.33 1.32 0.66 2 1 C2 7.93 2 14.86 2 22 C1.01 21.34 0.02 20.68 -1 20 C-1.35644531 18.15234375 -1.35644531 18.15234375 -1.328125 15.9375 C-1.32296875 15.14085937 -1.3178125 14.34421875 -1.3125 13.5234375 C-1.291875 12.69070312 -1.27125 11.85796875 -1.25 11 C-1.24484375 10.16726562 -1.2396875 9.33453125 -1.234375 8.4765625 C-1.15453696 2.30907392 -1.15453696 2.30907392 0 0 Z " fill="#C2D4B9" transform="translate(240,177)"/>
<path d="M0 0 C0 0.66 0 1.32 0 2 C-0.99 2.495 -0.99 2.495 -2 3 C-0.35 3 1.3 3 3 3 C0.75285927 5.58421184 -0.71508847 6.24916308 -4 7 C-6.01526169 7.96887581 -8.01833966 8.9641321 -10 10 C-10 9.34 -10 8.68 -10 8 C-11.65 8.33 -13.3 8.66 -15 9 C-11.6214602 5.03388806 -5.46055995 0 0 0 Z " fill="#478045" transform="translate(329,345)"/>
<path d="M0 0 C0.33 0 0.66 0 1 0 C3.32235895 5.80589737 4.01109285 10.96672145 2 17 C1.67 17.66 1.34 18.32 1 19 C0.34 19 -0.32 19 -1 19 C-1.02683987 16.02077407 -1.04676037 13.04178705 -1.0625 10.0625 C-1.07087891 9.21236328 -1.07925781 8.36222656 -1.08789062 7.48632812 C-1.09111328 6.67744141 -1.09433594 5.86855469 -1.09765625 5.03515625 C-1.10289307 4.2862915 -1.10812988 3.53742676 -1.11352539 2.76586914 C-1 1 -1 1 0 0 Z " fill="#39773A" transform="translate(289,264)"/>
<path d="M0 0 C0.33 0 0.66 0 1 0 C1.11608127 4.41644598 1.1872132 8.83250017 1.25 13.25 C1.30027344 15.13138672 1.30027344 15.13138672 1.3515625 17.05078125 C1.36445313 18.25605469 1.37734375 19.46132812 1.390625 20.703125 C1.4220459 22.36843262 1.4220459 22.36843262 1.45410156 24.06738281 C1 27 1 27 -3 31 C-2.67 26.71 -2.34 22.42 -2 18 C-1.67 18 -1.34 18 -1 18 C-0.505 9.09 -0.505 9.09 0 0 Z " fill="#DCE2D0" transform="translate(288,177)"/>
<path d="M0 0 C0.66644531 0.19335938 1.33289063 0.38671875 2.01953125 0.5859375 C8.63209159 2.4541014 15.22078979 3.88542966 22 5 C18.34704418 7.38778576 15.83467631 6.97614463 11.625 6.25 C9.97371094 5.97929687 9.97371094 5.97929687 8.2890625 5.703125 C5.08618171 5.01842364 2.08268063 4.09896167 -1 3 C-0.67 2.01 -0.34 1.02 0 0 Z " fill="#CDDEC5" transform="translate(327,362)"/>
<path d="M0 0 C8.25 0.33 16.5 0.66 25 1 C25 1.33 25 1.66 25 2 C21.64908229 2.75363052 18.56890188 3.11979937 15.13671875 3.09765625 C13.80737305 3.09282227 13.80737305 3.09282227 12.45117188 3.08789062 C11.53916016 3.07951172 10.62714844 3.07113281 9.6875 3.0625 C8.75615234 3.05798828 7.82480469 3.05347656 6.86523438 3.04882812 C4.57675627 3.03709234 2.28841192 3.02067363 0 3 C0 2.01 0 1.02 0 0 Z " fill="#FADAB6" transform="translate(264,316)"/>
<path d="M0 0 C0 1.66666667 0 3.33333333 0 5 C-2.95105384 6.7004792 -5.91190122 8.38311093 -8.875 10.0625 C-9.71675781 10.54783203 -10.55851562 11.03316406 -11.42578125 11.53320312 C-12.23144531 11.98759766 -13.03710938 12.44199219 -13.8671875 12.91015625 C-14.61081543 13.33433838 -15.35444336 13.75852051 -16.12060547 14.19555664 C-17.05090576 14.5937561 -17.05090576 14.5937561 -18 15 C-18.66 14.67 -19.32 14.34 -20 14 C-19.14277344 13.40832031 -18.28554688 12.81664062 -17.40234375 12.20703125 C-11.57165595 8.17878836 -5.74894701 4.1445897 0 0 Z " fill="#BBD2B2" transform="translate(280,370)"/>
<path d="M0 0 C2.72426311 2.35277269 3.8141763 4.62496331 5 8 C6.32 8 7.64 8 9 8 C9 8.66 9 9.32 9 10 C6.375 11.25 6.375 11.25 3 12 C-0.375 10.125 -0.375 10.125 -3 8 C-2.34 7.67 -1.68 7.34 -1 7 C-0.01 7.33 0.98 7.66 2 8 C2 7.34 2 6.68 2 6 C1.01 6 0.02 6 -1 6 C-0.67 4.02 -0.34 2.04 0 0 Z " fill="#4F804B" transform="translate(257,219)"/>
<path d="M0 0 C0 0.66 0 1.32 0 2 C-2.62467634 3.4797435 -5.24972493 4.95881943 -7.875 6.4375 C-8.62136719 6.85837891 -9.36773437 7.27925781 -10.13671875 7.71289062 C-11.20986328 8.31713867 -11.20986328 8.31713867 -12.3046875 8.93359375 C-12.96452637 9.30540771 -13.62436523 9.67722168 -14.30419922 10.06030273 C-15.52114651 10.73465202 -16.75558603 11.37779302 -18 12 C-18.99 11.34 -19.98 10.68 -21 10 C-18.58367661 8.70768774 -16.16695604 7.41612809 -13.75 6.125 C-13.06808594 5.76019531 -12.38617188 5.39539063 -11.68359375 5.01953125 C-9.7911615 4.00900917 -7.89604372 3.00372484 -6 2 C-4.83210938 1.37738281 -4.83210938 1.37738281 -3.640625 0.7421875 C-2 0 -2 0 0 0 Z " fill="#C3D9BB" transform="translate(375,300)"/>
<path d="M0 0 C0.28875 0.61875 0.5775 1.2375 0.875 1.875 C1.93720042 4.13325765 1.93720042 4.13325765 4 6 C3.01 6 2.02 6 1 6 C0.67 6.99 0.34 7.98 0 9 C-0.66 9 -1.32 9 -2 9 C-2.33 13.29 -2.66 17.58 -3 22 C-3.33 22 -3.66 22 -4 22 C-4.46251848 13.68751509 -4.22550835 7.30032023 0 0 Z " fill="#E68130" transform="translate(264,280)"/>
<path d="M0 0 C2 2 2 2 3 5.0625 C3.65752556 8.12150806 3.65752556 8.12150806 6 9 C5.67 10.98 5.34 12.96 5 15 C2 11 -1 7 -4 3 C-2.68 3 -1.36 3 0 3 C0 2.01 0 1.02 0 0 Z " fill="#4F834E" transform="translate(283,263)"/>
<path d="M0 0 C0.5625 1.9375 0.5625 1.9375 1 4 C0.67 4.33 0.34 4.66 0 5 C-0.04063832 6.66617115 -0.042721 8.33388095 0 10 C0.33 10 0.66 10 1 10 C1.125 13.375 1.125 13.375 1 17 C0.34 17.66 -0.32 18.32 -1 19 C-1.69748583 20.31747324 -2.36959957 21.64914193 -3 23 C-3.33 22.34 -3.66 21.68 -4 21 C-3.505 19.515 -3.505 19.515 -3 18 C-2.85596652 16.66636297 -2.75409577 15.32781954 -2.68359375 13.98828125 C-2.64169922 13.23095703 -2.59980469 12.47363281 -2.55664062 11.69335938 C-2.51732422 10.90767578 -2.47800781 10.12199219 -2.4375 9.3125 C-2.39431641 8.51521484 -2.35113281 7.71792969 -2.30664062 6.89648438 C-2.20072632 4.93118553 -2.09987449 2.96561504 -2 1 C-1.34 0.67 -0.68 0.34 0 0 Z " fill="#F6E5D4" transform="translate(232,337)"/>
<path d="M0 0 C2.3770388 2.88449652 3.68137506 5.42337774 4.75 9 C5.01296875 9.845625 5.2759375 10.69125 5.546875 11.5625 C6.02030418 14.1092225 5.83078409 15.5750086 5 18 C3.96241251 15.94587752 2.9454966 13.88130395 1.9375 11.8125 C1.36902344 10.66394531 0.80054688 9.51539063 0.21484375 8.33203125 C-1.04125973 4.88683423 -1.12742053 3.42091601 0 0 Z " fill="#C0D6BA" transform="translate(282,254)"/>
<path d="M0 0 C1.8871875 0.061875 1.8871875 0.061875 3.8125 0.125 C2.3275 1.61 2.3275 1.61 0.8125 3.125 C-0.1775 2.795 -1.1675 2.465 -2.1875 2.125 C-3.67890021 5.74697194 -4.9749262 9.40066618 -6.1875 13.125 C-6.5175 13.125 -6.8475 13.125 -7.1875 13.125 C-7.1875 10.815 -7.1875 8.505 -7.1875 6.125 C-6.5275 6.125 -5.8675 6.125 -5.1875 6.125 C-5.1875 5.135 -5.1875 4.145 -5.1875 3.125 C-5.8475 2.795 -6.5075 2.465 -7.1875 2.125 C-4.09861478 0.06574319 -3.47814073 -0.1140374 0 0 Z " fill="#578154" transform="translate(264.1875,144.875)"/>
<path d="M0 0 C0 0.99 0 1.98 0 3 C-0.66 3 -1.32 3 -2 3 C-2 3.66 -2 4.32 -2 5 C-3.423125 5.928125 -3.423125 5.928125 -4.875 6.875 C-7.82241872 8.87924473 -8.83853833 9.74790731 -10 13 C-10.66 13 -11.32 13 -12 13 C-10.48665656 7.61922331 -5.99032955 0 0 0 Z " fill="#37733C" transform="translate(259,148)"/>
<path d="M0 0 C0.33 0 0.66 0 1 0 C1.66 4.29 2.32 8.58 3 13 C1.35 12.67 -0.3 12.34 -2 12 C-2 9.03 -2 6.06 -2 3 C-1.34 3 -0.68 3 0 3 C0 2.01 0 1.02 0 0 Z " fill="#E3E8D9" transform="translate(195,244)"/>
<path d="M0 0 C0.99 0.33 1.98 0.66 3 1 C4.1875 4.0625 4.1875 4.0625 5 7 C4.01 7.33 3.02 7.66 2 8 C1.67 11.63 1.34 15.26 1 19 C0.67 19 0.34 19 0 19 C0 12.73 0 6.46 0 0 Z " fill="#58825A" transform="translate(281,232)"/>
<path d="M0 0 C0.66 0 1.32 0 2 0 C2 5.28 2 10.56 2 16 C1.34 14.68 0.68 13.36 0 12 C-0.33 11.67 -0.66 11.34 -1 11 C-1.09823937 9.33570949 -1.12973631 7.66718069 -1.125 6 C-1.12757813 5.0925 -1.13015625 4.185 -1.1328125 3.25 C-1 1 -1 1 0 0 Z " fill="#F6E3D0" transform="translate(205,340)"/>
<path d="M0 0 C0 3 0 3 -1 6 C-3.36328125 7.75390625 -3.36328125 7.75390625 -6.3125 9.5625 C-7.27800781 10.16191406 -8.24351562 10.76132812 -9.23828125 11.37890625 C-11.46179787 12.6840822 -13.67504606 13.88998636 -16 15 C-12.49441279 11.44314278 -8.89446761 8.03716953 -5.1875 4.6875 C-4.21167969 3.80449219 -3.23585938 2.92148437 -2.23046875 2.01171875 C-1.49441406 1.34785156 -0.75835937 0.68398438 0 0 Z " fill="#C3D9BC" transform="translate(337,321)"/>
<path d="M0 0 C0.33 0 0.66 0 1 0 C1.02929977 3.35414799 1.0468989 6.70826253 1.0625 10.0625 C1.07087891 11.00544922 1.07925781 11.94839844 1.08789062 12.91992188 C1.10581103 18.0630768 0.89259611 22.93258427 0 28 C-0.33 28 -0.66 28 -1 28 C-0.99476318 27.40461426 -0.98952637 26.80922852 -0.98413086 26.19580078 C-0.96338001 23.50554453 -0.95034593 20.81530511 -0.9375 18.125 C-0.92912109 17.18785156 -0.92074219 16.25070312 -0.91210938 15.28515625 C-0.90888672 14.38925781 -0.90566406 13.49335938 -0.90234375 12.5703125 C-0.89710693 11.74289551 -0.89187012 10.91547852 -0.88647461 10.06298828 C-0.86647862 7.93588243 -0.86647862 7.93588243 -2 6 C-1.39421747 3.98072489 -0.73080266 1.97746603 0 0 Z " fill="#F3D2AF" transform="translate(209,299)"/>
<path d="M0 0 C0.74507813 0.05220703 1.49015625 0.10441406 2.2578125 0.15820312 C4.08894861 0.2873217 5.91953813 0.42415114 7.75 0.5625 C4.00764681 3.01239101 0.30774581 2.79336143 -4 2.6875 C-4.69738281 2.67847656 -5.39476562 2.66945313 -6.11328125 2.66015625 C-7.82566958 2.63669888 -9.53788004 2.60083104 -11.25 2.5625 C-11.58 1.9025 -11.91 1.2425 -12.25 0.5625 C-8.10340627 -0.63549449 -4.25630953 -0.3271192 0 0 Z " fill="#D2E4C8" transform="translate(357.25,367.4375)"/>
<path d="M0 0 C4.29 0.33 8.58 0.66 13 1 C8.78370866 3.10814567 6.60209225 3.17700355 2 3 C2 3.99 2 4.98 2 6 C1.01 5.67 0.02 5.34 -1 5 C-0.67 3.35 -0.34 1.7 0 0 Z " fill="#F5CFA8" transform="translate(267,326)"/>
<path d="M0 0 C4.62 0 9.24 0 14 0 C14 0.33 14 0.66 14 1 C10.37 1.33 6.74 1.66 3 2 C3.33 3.32 3.66 4.64 4 6 C4.99 6.33 5.98 6.66 7 7 C5.35 6.67 3.7 6.34 2 6 C1.34 4.02 0.68 2.04 0 0 Z " fill="#E88D48" transform="translate(264,319)"/>
<path d="M0 0 C-2.80804268 2.96404505 -5.18315774 5.44499019 -9 7 C-10 6 -10 6 -10.0625 3.4375 C-10.041875 2.633125 -10.02125 1.82875 -10 1 C-6.59437148 0.22157062 -3.49234244 -0.09978121 0 0 Z " fill="#E0E7D3" transform="translate(357,311)"/>
<path d="M0 0 C4.92127034 -0.16682272 8.50343896 -0.24828052 13 2 C11.13758747 4.4832167 10.18111649 4.96917166 7.0625 5.5 C4 5 4 5 1.625 2.5 C0.820625 1.2625 0.820625 1.2625 0 0 Z " fill="#E7802B" transform="translate(278,346)"/>
<path d="M0 0 C1.65 0 3.3 0 5 0 C5.08142927 1.7492214 5.13938541 3.49954542 5.1875 5.25 C5.22230469 6.22453125 5.25710938 7.1990625 5.29296875 8.203125 C5 11 5 11 2 15 C2.33 10.38 2.66 5.76 3 1 C2.01 0.67 1.02 0.34 0 0 Z " fill="#A8C15B" transform="translate(382,109)"/>
<path d="M0 0 C1.32 0 2.64 0 4 0 C4 1.32 4 2.64 4 4 C1.69 5.32 -0.62 6.64 -3 8 C-2.45276317 4.62537285 -1.9451 2.91765 0 0 Z " fill="#3C793B" transform="translate(305,346)"/>
<path d="M0 0 C0 0.99 0 1.98 0 3 C-1.63631892 4.04892238 -3.30485863 5.04906703 -5 6 C-5.33 6.66 -5.66 7.32 -6 8 C-5.34 8.33 -4.68 8.66 -4 9 C-4.99 9.33 -5.98 9.66 -7 10 C-7 9.34 -7 8.68 -7 8 C-8.32 7.67 -9.64 7.34 -11 7 C-7.37 4.69 -3.74 2.38 0 0 Z " fill="#4B8149" transform="translate(308,357)"/>
<path d="M0 0 C2.9375 1.5 2.9375 1.5 5 3 C4.01 3.495 4.01 3.495 3 4 C2.34 3.67 1.68 3.34 1 3 C-2.83588262 2.82951633 -6.2651627 3.12121475 -10 4 C-10 3.34 -10 2.68 -10 2 C-6.27420911 -0.48386059 -4.41288598 -0.3804212 0 0 Z " fill="#E27825" transform="translate(307,274)"/>
<path d="M0 0 C0.33 0 0.66 0 1 0 C1.33 1.98 1.66 3.96 2 6 C2.99 6 3.98 6 5 6 C4.01 8.31 3.02 10.62 2 13 C1.01 12.67 0.02 12.34 -1 12 C-0.67 8.04 -0.34 4.08 0 0 Z " fill="#558452" transform="translate(293,256)"/>
<path d="M0 0 C3.44270451 1.53009089 6.18925822 3.4931222 9 6 C9.33 6.99 9.66 7.98 10 9 C9.34 9 8.68 9 8 9 C7.67 8.34 7.34 7.68 7 7 C4.69034152 5.94647157 2.3570226 4.94280904 0 4 C0 2.68 0 1.36 0 0 Z " fill="#4B7B4B" transform="translate(269,247)"/>
<path d="M0 0 C0.6640625 1.7421875 0.6640625 1.7421875 1 4 C-1.06527155 8.11501475 -3.79626037 11.37196193 -7.875 13.5 C-8.57625 13.665 -9.2775 13.83 -10 14 C-9.61328125 13.57589844 -9.2265625 13.15179688 -8.828125 12.71484375 C-5.2605903 8.69695194 -2.51826571 4.74596229 0 0 Z " fill="#D9E5CF" transform="translate(112,322)"/>
<path d="M0 0 C2.64 1.98 5.28 3.96 8 6 C7.67 6.66 7.34 7.32 7 8 C6.34 8 5.68 8 5 8 C5 7.34 5 6.68 5 6 C3.68 6 2.36 6 1 6 C0.67 6.66 0.34 7.32 0 8 C0 5.36 0 2.72 0 0 Z " fill="#E2771E" transform="translate(283,278)"/>
<path d="M0 0 C1.8046875 1.52734375 1.8046875 1.52734375 3 3 C2.319375 2.835 1.63875 2.67 0.9375 2.5 C-2.48119943 1.91809371 -5.53820789 1.74357095 -9 2 C-10.94369738 3.35429841 -10.94369738 3.35429841 -12 5 C-12.99 4.67 -13.98 4.34 -15 4 C-10.68810449 -0.59935521 -6.01168841 -1.13101256 0 0 Z " fill="#E47D2D" transform="translate(280,275)"/>
<path d="M0 0 C0.33 0 0.66 0 1 0 C1.63019694 8.03501094 1.63019694 8.03501094 -1 12.0625 C-1.66 12.701875 -2.32 13.34125 -3 14 C-3.66 13.67 -4.32 13.34 -5 13 C-4.72285156 12.31292969 -4.44570313 11.62585938 -4.16015625 10.91796875 C-3.79792969 10.01691406 -3.43570312 9.11585938 -3.0625 8.1875 C-2.70285156 7.29417969 -2.34320313 6.40085938 -1.97265625 5.48046875 C-1.26386514 3.6729091 -0.6139753 1.84192591 0 0 Z " fill="#4E8150" transform="translate(271,213)"/>
<path d="M0 0 C0.33 0.66 0.66 1.32 1 2 C0.67 2.66 0.34 3.32 0 4 C0.99 4.66 1.98 5.32 3 6 C0.75 7.1875 0.75 7.1875 -2 8 C-4.3125 6.625 -4.3125 6.625 -6 5 C-4.02 3.35 -2.04 1.7 0 0 Z " fill="#D8E2CC" transform="translate(299,356)"/>
<path d="M0 0 C0.66 0 1.32 0 2 0 C2 0.66 2 1.32 2 2 C2.66 2.33 3.32 2.66 4 3 C3.25 4.9375 3.25 4.9375 2 7 C-0.125 7.75 -0.125 7.75 -2 8 C-2 4.79604584 -1.25664978 2.90600261 0 0 Z " fill="#38733D" transform="translate(317,336)"/>
<path d="M0 0 C0.33 0 0.66 0 1 0 C0.91266424 1.60517097 0.80447776 3.20921662 0.6875 4.8125 C0.62949219 5.70582031 0.57148438 6.59914063 0.51171875 7.51953125 C-0.06313581 10.30604 -0.8206856 11.24135754 -3 13 C-3.33 11.35 -3.66 9.7 -4 8 C-3.34 8 -2.68 8 -2 8 C-2.04125 7.236875 -2.0825 6.47375 -2.125 5.6875 C-2 3 -2 3 0 0 Z " fill="#E7731F" transform="translate(316,303)"/>
<path d="M0 0 C0.66 0.33 1.32 0.66 2 1 C1.8125 2.8125 1.8125 2.8125 1 5 C-1.90696599 7.14197494 -3.35521088 8 -7 8 C-5.60746468 4.51866169 -4.36823784 3.52113967 -1 2 C-0.67 1.34 -0.34 0.68 0 0 Z " fill="#387B35" transform="translate(309,357)"/>
<path d="M0 0 C0.66 0.33 1.32 0.66 2 1 C1.52433594 2.27230469 1.52433594 2.27230469 1.0390625 3.5703125 C-0.02871232 7.09477225 -0.40041079 10.20670957 -0.625 13.875 C-0.69976562 15.02742188 -0.77453125 16.17984375 -0.8515625 17.3671875 C-0.92503906 18.67042969 -0.92503906 18.67042969 -1 20 C-1.33 20 -1.66 20 -2 20 C-2.05407567 17.41638482 -2.093707 14.83390745 -2.125 12.25 C-2.14175781 11.52039063 -2.15851563 10.79078125 -2.17578125 10.0390625 C-2.21072239 6.1955376 -2.17499684 3.25393228 0 0 Z " fill="#F9E3C6" transform="translate(261,282)"/>
<path d="M0 0 C2.72286806 4.08430208 2.38524534 6.14590877 2 11 C1.01 11.66 0.02 12.32 -1 13 C-0.67 8.71 -0.34 4.42 0 0 Z " fill="#D2DDC6" transform="translate(286,195)"/>
<path d="M0 0 C3.42931954 3.7559214 4.56429083 8.23466745 6 13 C5.01 13.33 4.02 13.66 3 14 C2.49528803 12.23050388 1.99639315 10.45934777 1.5 8.6875 C1.2215625 7.70136719 0.943125 6.71523437 0.65625 5.69921875 C0 3 0 3 0 0 Z " fill="#B0CAA9" transform="translate(358,116)"/>
<path d="M0 0 C0.66 0.99 1.32 1.98 2 3 C1.67 3.66 1.34 4.32 1 5 C1.99 5.33 2.98 5.66 4 6 C1 8 1 8 -1.6875 7.625 C-2.450625 7.41875 -3.21375 7.2125 -4 7 C-2.68 4.69 -1.36 2.38 0 0 Z " fill="#4B7F4C" transform="translate(326,322)"/>
<path d="M0 0 C0.66 0 1.32 0 2 0 C1.34 4.62 0.68 9.24 0 14 C-0.33 14 -0.66 14 -1 14 C-1.02685938 11.85423363 -1.04633088 9.70837355 -1.0625 7.5625 C-1.07410156 6.36753906 -1.08570313 5.17257812 -1.09765625 3.94140625 C-1 1 -1 1 0 0 Z " fill="#C7D9BD" transform="translate(292,254)"/>
<path d="M0 0 C0.66 0 1.32 0 2 0 C1.6875 2.375 1.6875 2.375 1 5 C-2 7 -2 7 -6 7 C-6 6.34 -6 5.68 -6 5 C-5.195625 4.731875 -4.39125 4.46375 -3.5625 4.1875 C-2.716875 3.795625 -1.87125 3.40375 -1 3 C-0.67 2.01 -0.34 1.02 0 0 Z " fill="#377937" transform="translate(265,376)"/>
<path d="M0 0 C0.66 0.33 1.32 0.66 2 1 C2.33 1.99 2.66 2.98 3 4 C0.1875 5.5625 0.1875 5.5625 -3 7 C-3.99 6.67 -4.98 6.34 -6 6 C-4 4 -2 2 0 0 Z " fill="#DBE3CC" transform="translate(284,367)"/>
<path d="M0 0 C7.75 0.875 7.75 0.875 10 2 C10 2.66 10 3.32 10 4 C6.53058454 3.54177532 3.32604951 3.10868317 0 2 C0 1.34 0 0.68 0 0 Z " fill="#D0E1C9" transform="translate(317,360)"/>
<path d="M0 0 C0.99 0.33 1.98 0.66 3 1 C-1.455 4.465 -1.455 4.465 -6 8 C-6.99 7.34 -7.98 6.68 -9 6 C-7.57140593 4.96674014 -6.13177617 3.94872366 -4.6875 2.9375 C-3.88699219 2.36902344 -3.08648437 1.80054688 -2.26171875 1.21484375 C-1.51535156 0.81394531 -0.76898438 0.41304688 0 0 Z " fill="#B7D1B1" transform="translate(369,351)"/>
<path d="M0 0 C-0.33 1.65 -0.66 3.3 -1 5 C-4.05847848 5.54372951 -6.88772805 6 -10 6 C-8.71283353 4.99421411 -7.42011342 3.99553202 -6.125 3 C-5.40570313 2.443125 -4.68640625 1.88625 -3.9453125 1.3125 C-2 0 -2 0 0 0 Z " fill="#5C8358" transform="translate(310,235)"/>
<path d="M0 0 C2.64 0.66 5.28 1.32 8 2 C7.67 2.99 7.34 3.98 7 5 C4.36 4.34 1.72 3.68 -1 3 C-0.67 2.01 -0.34 1.02 0 0 Z " fill="#B9CCB3" transform="translate(327,362)"/>
<path d="M0 0 C1.65 0 3.3 0 5 0 C3.86695008 3.39914975 2.87481525 4.05254451 0 6 C-0.66 5.67 -1.32 5.34 -2 5 C-1.34 3.35 -0.68 1.7 0 0 Z " fill="#3B733C" transform="translate(322,329)"/>
<path d="M0 0 C0.66 0.66 1.32 1.32 2 2 C0.93283928 3.20205464 -0.15438337 4.38632333 -1.25 5.5625 C-2.15492188 6.55443359 -2.15492188 6.55443359 -3.078125 7.56640625 C-5 9 -5 9 -7.234375 8.71484375 C-7.81703125 8.47894531 -8.3996875 8.24304688 -9 8 C-8.51789063 7.67386719 -8.03578125 7.34773437 -7.5390625 7.01171875 C-6.90742188 6.57472656 -6.27578125 6.13773438 -5.625 5.6875 C-4.99851563 5.25824219 -4.37203125 4.82898438 -3.7265625 4.38671875 C-1.73621155 2.93079661 -1.73621155 2.93079661 0 0 Z " fill="#DAE1CE" transform="translate(161,221)"/>
<path d="M0 0 C1.32 0 2.64 0 4 0 C4 0.66 4 1.32 4 2 C3.01 2 2.02 2 1 2 C1 3.32 1 4.64 1 6 C-0.32 5.67 -1.64 5.34 -3 5 C-1.75 2.5 -1.75 2.5 0 0 Z " fill="#EEE9E0" transform="translate(301,355)"/>
<path d="M0 0 C1.98 0.495 1.98 0.495 4 1 C3.34 2.32 2.68 3.64 2 5 C1.01 5 0.02 5 -1 5 C-0.67 3.35 -0.34 1.7 0 0 Z " fill="#387838" transform="translate(292,356)"/>
<path d="M0 0 C-0.57584432 2.38564077 -1.22227595 4.66682784 -2 7 C-1.34 7.33 -0.68 7.66 0 8 C-1.32 7.67 -2.64 7.34 -4 7 C-4.6875 5.1875 -4.6875 5.1875 -5 3 C-3.38441968 0.84589291 -2.74502455 0 0 0 Z " fill="#F1EAE1" transform="translate(301,340)"/>
<path d="M0 0 C0.33 0.99 0.66 1.98 1 3 C1.99 3.33 2.98 3.66 4 4 C1.03 6.475 1.03 6.475 -2 9 C-1.34 6.03 -0.68 3.06 0 0 Z " fill="#D6D1AA" transform="translate(292,275)"/>
<path d="M0 0 C0.6875 1.6875 0.6875 1.6875 1 4 C-0.3125 6.75 -0.3125 6.75 -2 9 C-2.66 9 -3.32 9 -4 9 C-2.94124926 5.59687262 -1.99097846 2.98646769 0 0 Z " fill="#F4D8BA" transform="translate(315,313)"/>
<path d="M0 0 C0.66 0.33 1.32 0.66 2 1 C-0.45699392 3.63249349 -2.56568654 5.78137264 -6 7 C-6.99 6.67 -7.98 6.34 -9 6 C-6.03 4.02 -3.06 2.04 0 0 Z " fill="#507E4E" transform="translate(359,310)"/>
<path d="M0 0 C0.556875 0.226875 1.11375 0.45375 1.6875 0.6875 C-0.2925 2.0075 -2.2725 3.3275 -4.3125 4.6875 C-5.3025 4.0275 -6.2925 3.3675 -7.3125 2.6875 C-2.88173077 -0.38942308 -2.88173077 -0.38942308 0 0 Z " fill="#D1E1C6" transform="translate(361.3125,307.3125)"/>
<path d="M0 0 C2.125 0.9375 2.125 0.9375 4 2 C2.68 3.32 1.36 4.64 0 6 C-0.66 4.35 -1.32 2.7 -2 1 C-1.34 0.67 -0.68 0.34 0 0 Z " fill="#447947" transform="translate(267,146)"/>
<path d="M0 0 C2.05078125 0.03255208 4.1015625 0.06510417 6.15234375 0.09765625 C4.66734375 1.58265625 4.66734375 1.58265625 3.15234375 3.09765625 C2.16234375 2.76765625 1.17234375 2.43765625 0.15234375 2.09765625 C-0.17765625 2.75765625 -0.50765625 3.41765625 -0.84765625 4.09765625 C-0.84765625 3.43765625 -0.84765625 2.77765625 -0.84765625 2.09765625 C-1.50765625 1.76765625 -2.16765625 1.43765625 -2.84765625 1.09765625 C-1.84765625 0.09765625 -1.84765625 0.09765625 0 0 Z " fill="#6B8D66" transform="translate(261.84765625,144.90234375)"/>
<path d="M0 0 C3 3.625 3 3.625 3 7 C0.03 6.505 0.03 6.505 -3 6 C-2.01 5.67 -1.02 5.34 0 5 C0 3.35 0 1.7 0 0 Z " fill="#5B8358" transform="translate(361,130)"/>
<path d="M0 0 C0.66 0.33 1.32 0.66 2 1 C-1.32307692 5.8 -1.32307692 5.8 -4.75 6.8125 C-5.4925 6.874375 -6.235 6.93625 -7 7 C-4.66666667 4.66666667 -2.33333333 2.33333333 0 0 Z " fill="#A3BF4C" transform="translate(380,110)"/>
<path d="M0 0 C1.32 0 2.64 0 4 0 C3.67 1.32 3.34 2.64 3 4 C1.35 4 -0.3 4 -2 4 C-1.34 2.68 -0.68 1.36 0 0 Z " fill="#337537" transform="translate(288,370)"/>
<path d="M0 0 C-0.33 1.32 -0.66 2.64 -1 4 C-2.98 4 -4.96 4 -7 4 C-3.375 0 -3.375 0 0 0 Z " fill="#357D36" transform="translate(319,353)"/>
<path d="M0 0 C3.875 4.75 3.875 4.75 5 7 C3.02 6.34 1.04 5.68 -1 5 C-0.67 3.35 -0.34 1.7 0 0 Z " fill="#F3DDC1" transform="translate(275,342)"/>
<path d="M0 0 C0.33 1.32 0.66 2.64 1 4 C-0.9375 6.75 -0.9375 6.75 -3 9 C-3.66 8.67 -4.32 8.34 -5 8 C-3.35 5.36 -1.7 2.72 0 0 Z " fill="#F1D1B1" transform="translate(310,322)"/>
<path d="M0 0 C0.66 0.33 1.32 0.66 2 1 C-0.475 4.465 -0.475 4.465 -3 8 C-3.33 6.68 -3.66 5.36 -4 4 C-2.0625 1.75 -2.0625 1.75 0 0 Z " fill="#CBD8C2" transform="translate(227,263)"/>
<path d="M0 0 C0 1.98 0 3.96 0 6 C-1.32 5.34 -2.64 4.68 -4 4 C-3.67 3.01 -3.34 2.02 -3 1 C-1 0 -1 0 0 0 Z " fill="#DEE5D4" transform="translate(282,251)"/>
<path d="M0 0 C0.66 0.66 1.32 1.32 2 2 C1.7578125 4.3828125 1.7578125 4.3828125 1.125 7.125 C0.92132813 8.03507813 0.71765625 8.94515625 0.5078125 9.8828125 C0.34023437 10.58148438 0.17265625 11.28015625 0 12 C-0.33 12 -0.66 12 -1 12 C-1.14285714 3.42857143 -1.14285714 3.42857143 0 0 Z " fill="#C5D4BA" transform="translate(255,164)"/>
<path d="M0 0 C0.6875 1.6875 0.6875 1.6875 1 4 C-0.3125 6.75 -0.3125 6.75 -2 9 C-2.66 9 -3.32 9 -4 9 C-2.94124926 5.59687262 -1.99097846 2.98646769 0 0 Z " fill="#568053" transform="translate(112,155)"/>
<path d="M0 0 C0.33 0.99 0.66 1.98 1 3 C-0.8125 6.1875 -0.8125 6.1875 -3 9 C-3.66 9 -4.32 9 -5 9 C-3.7508258 5.54074837 -2.32472205 2.85306797 0 0 Z " fill="#4D7C4D" transform="translate(252,152)"/>
<path d="M0 0 C0.33 0.99 0.66 1.98 1 3 C0.2884375 3.6496875 0.2884375 3.6496875 -0.4375 4.3125 C-2.23686957 6.02309613 -2.23686957 6.02309613 -3 9 C-3.66 9 -4.32 9 -5 9 C-3.7508258 5.54074837 -2.32472205 2.85306797 0 0 Z " fill="#48794B" transform="translate(183,152)"/>
</svg>
